<?xml version="1.0" encoding="utf-8"?>
<!-- Generator: Adobe Illustrator 22.0.1, SVG Export Plug-In . SVG Version: 6.00 Build 0)  -->
<!DOCTYPE svg PUBLIC "-//W3C//DTD SVG 1.1//EN" "http://www.w3.org/Graphics/SVG/1.1/DTD/svg11.dtd">
<svg version="1.1" id="Layer_1" xmlns="http://www.w3.org/2000/svg" xmlns:xlink="http://www.w3.org/1999/xlink" x="0px" y="0px"
	 viewBox="0 0 200 200" style="enable-background:new 0 0 200 200;" xml:space="preserve">
<style type="text/css">
	.st0{fill:#0F0F0F;}
</style>
<path class="st0" d="M29.864258,122.354492c-5.358887,0-8.700684-1.134766-11.601074-2.584961V79.859375l-3.845703,0.31543
	l-0.252441-1.765625l9.205078-1.891602l2.144043-0.0625v20.365234l8.763672-6.179688
	c6.305176,0,11.664062,5.170898,11.664062,13.871094C45.941895,115.166992,39.952148,120.589844,29.864258,122.354492z
	 M32.134277,95.874023c-1.765625,0-3.341797,0.819336-5.169922,2.081055l-1.450195,1.008789v18.725586
	c1.134766,1.576172,2.899902,2.333008,5.169922,2.333008c4.350586,0,7.50293-4.791992,7.50293-12.862305
	C38.187012,99.720703,35.854004,95.874023,32.134277,95.874023z"/>
<path class="st0" d="M79.243164,113.086914c0,2.584961,0.31543,3.90918,0.819824,5.421875l2.963379-0.189453l0.125977,1.703125
	l-9.520508,1.828125l-1.387207-5.737305l-9.898438,6.241211c-3.467773-0.0625-5.674316-0.693359-6.935547-2.143555
	c-1.387207-1.576172-1.765137-3.782227-1.765137-7.376953V94.613281l-3.846191,0.37793l-0.188965-1.764648l9.14209-1.765625
	l2.269531-0.125977v21.373047c0,3.21582,1.26123,4.602539,3.846191,4.602539c1.702148,0,3.404297-1.008789,5.358887-2.269531
	l1.765625-1.071289V94.613281l-3.656738,0.37793l-0.126465-1.764648l8.76416-1.765625l2.269531-0.125977V113.086914z"/>
<path class="st0" d="M131.590027,117.689941l-8.700012,4.660156c-5.869995,0-7.950012-2.830078-7.950012-8.189941V94.359863
	H97.850037v19.290039c0,2.399902,1.199951,3.910156,3.469971,3.910156c1.950012,0,3.340027-0.560059,5.169983-1.450195
	l0.75,1.580078l-8.699951,4.660156c-5.860046,0-7.940002-2.830078-7.940002-8.189941V94.359863h-5.170044v-1.009766
	l1.200012-1.130371h4.030029v-4.419922l6.049988-4.159668h1.140015v8.699707L97,92.219727h18v-4.419922l6.059998-4.159668h1.130005
	v8.699707h8.77002v2.02002h-8.77002v19.290039c0,2.399902,1.200012,3.910156,3.470032,3.910156
	c1.949951,0,3.339966-0.560059,5.169983-1.450195L131.590027,117.689941z"/>
<path class="st0" d="M140.961914,104.890625c0.251953,7.439453,4.350586,11.852539,10.466309,11.852539
	c2.773926,0,5.485352-1.134766,7.754883-2.521484l0.819824,1.576172c-3.530762,3.026367-6.872559,4.854492-11.349121,6.556641
	c-7.943848,0-14.753418-5.421875-14.753418-14.816406c0-9.205078,5.674316-14.816406,14.627441-16.897461
	c7.628906,0,11.349121,4.791992,11.349121,11.727539v2.522461H140.961914z M152.247559,102.80957v-0.693359
	c0-5.359375-1.008789-8.827148-5.295898-8.827148c-3.720215,0-5.800781,3.657227-6.052734,9.394531V103.125L152.247559,102.80957z"
	/>
<path class="st0" d="M174.625977,100.791992l6.430664-9.835938h4.917969v7.50293h-6.494141
	c-0.819336,0.251953-2.836914,2.458984-3.656738,3.405273L174.87793,103.125v15.951172l6.115723,0.567383l-0.188965,1.829102
	l-9.45752-0.126953l-7.376465,0.126953l-0.126465-1.703125l3.846191-0.629883V94.675781l-3.972168,0.504883l-0.188965-1.702148
	l8.953125-2.143555l1.828125-0.125977L174.625977,100.791992z"/>
</svg>
